<?xml version="1.0" encoding="UTF-8"?>
<svg xmlns="http://www.w3.org/2000/svg" xmlns:xlink="http://www.w3.org/1999/xlink" version="1.1" id="Layer_2" width="512px" height="512px" viewBox="0 0 38 38" xml:space="preserve">
<style type="text/css">

	.st0{fill:#000000;}

</style>
    <g>
	<path class="st0" d="M20.5,17.5V9.008c0-0.828-0.672-1.5-1.5-1.5s-1.5,0.672-1.5,1.5v8.492H9.008c-0.828,0-1.5,0.672-1.5,1.5   s0.672,1.5,1.5,1.5h8.492v8.492c0,0.828,0.672,1.5,1.5,1.5s1.5-0.672,1.5-1.5v-8.492h8.492c0.828,0,1.5-0.672,1.5-1.5   s-0.672-1.5-1.5-1.5H20.5z"></path>
        <path class="st0" d="M19,0.5C9.085,0.5,1,8.585,1,18.5S9.085,36.5,19,36.5S37,28.415,37,18.5S28.915,0.5,19,0.5z M19,34   c-8.56,0-15.5-6.94-15.5-15.5S10.44,3,19,3s15.5,6.94,15.5,15.5S27.56,34,19,34z"></path>
</g>
</svg>
