<?xml version="1.0" encoding="UTF-8"?>
<svg xmlns="http://www.w3.org/2000/svg" xmlns:xlink="http://www.w3.org/1999/xlink" version="1.1" id="Icon" width="512px" height="512px" viewBox="0 0 64 64" xml:space="preserve">
<style type="text/css">

	.st0{fill:#000000;}

</style>
    <g>
	<path class="st0" d="M41.07373,49.55029a3.00422,3.00422,0,0,1,.001-4.24072l4.23047-4.22949a3.00333,3.00333,0,0,1,4.24072-.00244   l.70959.70886-8.4732,8.4732Zm18.376,1.4209-7.77942-7.77136L43.1955,51.67462l7.77081,7.78a5.99867,5.99867,0,1,0,8.4834-8.4834ZM48,25   A23,23,0,1,1,25,2,23.02619,23.02619,0,0,1,48,25Zm-4,0A19,19,0,1,0,25,44,19.02162,19.02162,0,0,0,44,25Zm-5-1v2a2.002,2.002,0,0,1-2,2H35.585   a10.8847,10.8847,0,0,1-.98144,2.36084l1.00293,1.00342a2.00867,2.00867,0,0,1,0,2.82812l-1.41407,1.41407a2.00074,2.00074,0,0,1-2.82861,0   l-1.00293-1.00293A10.89483,10.89483,0,0,1,28,35.585V37a2.002,2.002,0,0,1-2,2H24a2.002,2.002,0,0,1-2-2V35.585a10.8847,10.8847,0,0,1-2.36084-.98144   l-1.00342,1.00293a2.04708,2.04708,0,0,1-2.82812,0l-1.41407-1.41407a2.0086,2.0086,0,0,1,.00049-2.82861l1.00244-1.00293A10.8847,10.8847,0,0,1,14.415,28H13   a2.002,2.002,0,0,1-2-2V24a2.002,2.002,0,0,1,2-2h1.415a10.8847,10.8847,0,0,1,.98144-2.36084l-1.00293-1.00342a2.00867,2.00867,0,0,1,0-2.82812   l1.41407-1.41407a2.04673,2.04673,0,0,1,2.82861.00049l1.00293,1.00244A10.8847,10.8847,0,0,1,22,14.415V13a2.002,2.002,0,0,1,2-2h2a2.002,2.002,0,0,1,2,2   v1.415a10.89483,10.89483,0,0,1,2.36084.98144l1.00293-1.00293a2.00074,2.00074,0,0,1,2.82861,0l1.41407,1.41407a2.0086,2.0086,0,0,1-.00049,2.82861   l-1.00244,1.00293A10.8847,10.8847,0,0,1,35.585,22H37A2.002,2.002,0,0,1,39,24Zm-8,1a6,6,0,1,0-6,6A6.00657,6.00657,0,0,0,31,25Z"></path>
</g>
</svg>
