<?xml version="1.0" encoding="UTF-8"?>
<svg xmlns="http://www.w3.org/2000/svg" xmlns:xlink="http://www.w3.org/1999/xlink" version="1.1" id="_x31_1_task" width="512px" height="512px" viewBox="0 0 32 32" xml:space="preserve">
<style type="text/css">

	.st0{fill:#000000;}

</style>
    <g>
	<path class="st0" d="M25,3h-3c0-1.103-0.897-2-2-2h-8c-1.103,0-2,0.897-2,2h-3c-1.103,0-2,0.897-2,2v24c0,1.103,0.897,2,2,2h18   c1.103,0,2-0.897,2-2V5C27,3.897,26.103,3,25,3z M12,3h8l-0.003,2H12V3z M25,29H7V5h3c0,1.103,0.897,2,2,2h8   c1.103,0,2-0.897,2-2h3V29z"></path>
        <path class="st0" d="M11,11.586L9.707,10.293L8.293,11.707l2.707,2.707l3.707-3.707l-1.414-1.414L11,11.586z"></path>
        <path class="st0" d="M16,11h7v2h-7V11z"></path>
        <path class="st0" d="M11,17.586L9.707,16.293L8.293,17.707l2.707,2.707l3.707-3.707l-1.414-1.414L11,17.586z"></path>
        <path class="st0" d="M16,17h7v2h-7V17z"></path>
        <path class="st0" d="M11,23.586L9.707,22.293L8.293,23.707l2.707,2.707l3.707-3.707l-1.414-1.414L11,23.586z"></path>
        <path class="st0" d="M16,23h7v2h-7V23z"></path>
</g>
</svg>
